<?xml version="1.0" encoding="utf-8"?>
<!-- Generator: Adobe Illustrator 22.0.1, SVG Export Plug-In . SVG Version: 6.00 Build 0)  -->
<svg version="1.1" id="Camada_1" xmlns="http://www.w3.org/2000/svg" xmlns:xlink="http://www.w3.org/1999/xlink" x="0px" y="0px"
	 viewBox="0 0 364 54" style="enable-background:new 0 0 364 54;" xml:space="preserve">
<style type="text/css">
	.st0{fill:#FFFFFF;stroke:#FFFFFF;stroke-width:0.5;stroke-miterlimit:10;}
	.st1{fill:#FFFFFF;}
</style>
<g>
	<g>
		<g>
			<path class="st0" d="M61.4,19c-0.1-0.1-0.2-0.2-0.4-0.2H41.7l-0.5-2.6c0-0.2-0.3-0.4-0.5-0.4h-3c-0.3,0-0.5,0.2-0.5,0.5
				c0,0.3,0.2,0.5,0.5,0.5h2.6l2.4,12.4c0.3,1.6,1.8,2.8,3.5,2.8h11.7c0.3,0,0.5-0.2,0.5-0.5S58.2,31,57.9,31H46.2
				c-0.8,0-1.6-0.4-2-1.1l14.8-2c0.2,0,0.4-0.2,0.4-0.4l2-8.1C61.5,19.3,61.5,19.1,61.4,19z M58.5,26.9l-14.8,1.9l-1.8-9.1h18.4
				L58.5,26.9z"/>
		</g>
	</g>
	<g>
		<g>
			<path class="st0" d="M45.7,33c-1.4,0-2.5,1.1-2.5,2.5s1.1,2.5,2.5,2.5s2.5-1.1,2.5-2.5C48.3,34.1,47.2,33,45.7,33z M45.7,37.1
				c-0.8,0-1.5-0.7-1.5-1.5s0.7-1.5,1.5-1.5s1.5,0.7,1.5,1.5S46.5,37.1,45.7,37.1z"/>
		</g>
	</g>
	<g>
		<g>
			<path class="st0" d="M55.9,33c-1.4,0-2.5,1.1-2.5,2.5s1.1,2.5,2.5,2.5s2.5-1.1,2.5-2.5S57.3,33,55.9,33z M55.9,37.1
				c-0.8,0-1.5-0.7-1.5-1.5s0.7-1.5,1.5-1.5s1.5,0.7,1.5,1.5S56.7,37.1,55.9,37.1z"/>
		</g>
	</g>
</g>
<g>
	<path class="st1" d="M72.5,28.2c0-1.1,0.2-2.2,0.6-3.3c0.4-1.1,1-2.1,1.9-2.9c0.8-0.9,1.8-1.6,3-2.1c1.2-0.5,2.5-0.8,4-0.8
		c1.8,0,3.3,0.4,4.6,1.1c1.3,0.7,2.3,1.7,2.9,2.9l-3.9,2.7c-0.2-0.4-0.4-0.8-0.7-1.1c-0.3-0.3-0.6-0.5-0.9-0.7
		c-0.3-0.2-0.7-0.3-1.1-0.4c-0.4-0.1-0.7-0.1-1.1-0.1c-0.7,0-1.4,0.1-1.9,0.4c-0.5,0.3-1,0.7-1.3,1.1c-0.3,0.5-0.6,1-0.8,1.6
		c-0.2,0.6-0.2,1.2-0.2,1.7c0,0.6,0.1,1.3,0.3,1.8c0.2,0.6,0.5,1.1,0.8,1.6c0.4,0.4,0.8,0.8,1.3,1.1c0.5,0.3,1.1,0.4,1.8,0.4
		c0.3,0,0.7,0,1.1-0.1c0.4-0.1,0.7-0.2,1.1-0.4c0.3-0.2,0.6-0.4,0.9-0.7s0.5-0.6,0.6-1l4.1,2.5c-0.3,0.7-0.7,1.3-1.3,1.8
		c-0.6,0.5-1.2,1-1.9,1.3c-0.7,0.4-1.5,0.6-2.3,0.8c-0.8,0.2-1.6,0.3-2.4,0.3c-1.4,0-2.6-0.3-3.7-0.8c-1.1-0.5-2.1-1.3-2.9-2.2
		c-0.8-0.9-1.5-1.9-1.9-3.1C72.7,30.5,72.5,29.4,72.5,28.2z"/>
	<path class="st1" d="M99.4,37.7c-1.4,0-2.7-0.3-3.8-0.8c-1.1-0.5-2.1-1.2-2.9-2.1s-1.4-1.9-1.9-3s-0.7-2.3-0.7-3.5
		c0-1.2,0.2-2.4,0.7-3.5c0.5-1.1,1.1-2.1,2-3s1.8-1.5,3-2c1.1-0.5,2.4-0.8,3.8-0.8c1.4,0,2.7,0.3,3.8,0.8c1.1,0.5,2.1,1.2,2.9,2.1
		c0.8,0.9,1.4,1.9,1.9,3c0.4,1.1,0.7,2.3,0.7,3.4c0,1.2-0.2,2.4-0.7,3.5s-1.1,2.1-1.9,3c-0.8,0.9-1.8,1.5-3,2.1
		S100.8,37.7,99.4,37.7z M95.3,28.4c0,0.6,0.1,1.2,0.3,1.8c0.2,0.6,0.4,1.1,0.8,1.5c0.3,0.5,0.8,0.8,1.3,1.1
		c0.5,0.3,1.2,0.4,1.9,0.4s1.4-0.1,1.9-0.4c0.5-0.3,1-0.7,1.3-1.1s0.6-1,0.8-1.6c0.2-0.6,0.2-1.2,0.2-1.8c0-0.6-0.1-1.2-0.3-1.8
		c-0.2-0.6-0.4-1.1-0.8-1.5c-0.4-0.4-0.8-0.8-1.3-1.1s-1.1-0.4-1.9-0.4c-0.7,0-1.4,0.1-1.9,0.4c-0.5,0.3-1,0.6-1.3,1.1
		c-0.3,0.5-0.6,1-0.8,1.6C95.3,27.2,95.3,27.8,95.3,28.4z"/>
	<path class="st1" d="M116,28.5v9.1H111V19.1h3.9l7.4,9.4v-9.4h5.1v18.4h-4L116,28.5z"/>
	<path class="st1" d="M129.5,28.2c0-1.1,0.2-2.2,0.6-3.3c0.4-1.1,1-2.1,1.9-2.9c0.8-0.9,1.8-1.6,3-2.1c1.2-0.5,2.5-0.8,4-0.8
		c1.8,0,3.3,0.4,4.6,1.1s2.3,1.7,2.9,2.9l-3.9,2.7c-0.2-0.4-0.4-0.8-0.7-1.1s-0.6-0.5-0.9-0.7s-0.7-0.3-1.1-0.4
		c-0.4-0.1-0.7-0.1-1.1-0.1c-0.7,0-1.4,0.1-1.9,0.4s-1,0.7-1.3,1.1c-0.3,0.5-0.6,1-0.8,1.6c-0.2,0.6-0.2,1.2-0.2,1.7
		c0,0.6,0.1,1.3,0.3,1.8c0.2,0.6,0.5,1.1,0.8,1.6c0.4,0.4,0.8,0.8,1.3,1.1c0.5,0.3,1.1,0.4,1.8,0.4c0.3,0,0.7,0,1.1-0.1
		c0.4-0.1,0.7-0.2,1-0.4s0.6-0.4,0.9-0.7c0.3-0.3,0.5-0.6,0.6-1l4.1,2.5c-0.3,0.7-0.7,1.3-1.3,1.8c-0.6,0.5-1.2,1-1.9,1.3
		c-0.7,0.4-1.5,0.6-2.3,0.8c-0.8,0.2-1.6,0.3-2.4,0.3c-1.4,0-2.6-0.3-3.7-0.8c-1.1-0.5-2.1-1.3-2.9-2.2c-0.8-0.9-1.5-1.9-1.9-3.1
		C129.7,30.5,129.5,29.4,129.5,28.2z"/>
	<path class="st1" d="M148.4,37.6V19.1h5.1v14h8.4v4.4H148.4z"/>
	<path class="st1" d="M171.4,33.2c0.6,0,1.1-0.1,1.5-0.4c0.4-0.3,0.8-0.6,1-1c0.3-0.4,0.4-0.9,0.6-1.5c0.1-0.6,0.2-1.1,0.2-1.7v-9.5
		h5.1v9.5c0,1.3-0.2,2.5-0.5,3.6s-0.8,2.1-1.5,2.9c-0.7,0.8-1.6,1.5-2.6,1.9s-2.3,0.7-3.7,0.7c-1.5,0-2.7-0.2-3.8-0.7
		c-1-0.5-1.9-1.2-2.6-2s-1.2-1.8-1.5-2.9c-0.3-1.1-0.5-2.3-0.5-3.5v-9.5h5.1v9.5c0,0.6,0.1,1.2,0.2,1.8c0.1,0.6,0.3,1.1,0.6,1.5
		c0.3,0.4,0.6,0.8,1,1C170.3,33.1,170.8,33.2,171.4,33.2z"/>
	<path class="st1" d="M182.6,37.6V19.1h5.1v18.4H182.6z"/>
	<path class="st1" d="M190.8,37.6V19.1h8.5c0.9,0,1.7,0.2,2.5,0.6c0.8,0.4,1.4,0.9,2,1.5c0.5,0.6,1,1.3,1.3,2
		c0.3,0.8,0.5,1.5,0.5,2.3c0,1.1-0.2,2.1-0.7,3c-0.5,0.9-1.1,1.7-1.9,2.3l3.9,6.8H201l-3.2-5.7h-1.9v5.7H190.8z M195.9,27.5h3.2
		c0.3,0,0.6-0.2,0.9-0.5c0.3-0.3,0.4-0.8,0.4-1.5c0-0.6-0.2-1.1-0.5-1.5c-0.3-0.3-0.6-0.5-0.9-0.5h-3.1V27.5z"/>
	<path class="st1" d="M219,28.2c0-1.1,0.2-2.2,0.6-3.3c0.4-1.1,1-2.1,1.9-2.9c0.8-0.9,1.8-1.6,3-2.1c1.2-0.5,2.5-0.8,4-0.8
		c1.8,0,3.3,0.4,4.6,1.1s2.3,1.7,2.9,2.9l-3.9,2.7c-0.2-0.4-0.4-0.8-0.7-1.1s-0.6-0.5-0.9-0.7s-0.7-0.3-1.1-0.4
		c-0.4-0.1-0.7-0.1-1.1-0.1c-0.7,0-1.4,0.1-1.9,0.4s-1,0.7-1.3,1.1c-0.3,0.5-0.6,1-0.8,1.6c-0.2,0.6-0.2,1.2-0.2,1.7
		c0,0.6,0.1,1.3,0.3,1.8c0.2,0.6,0.5,1.1,0.8,1.6c0.4,0.4,0.8,0.8,1.3,1.1c0.5,0.3,1.1,0.4,1.8,0.4c0.3,0,0.7,0,1.1-0.1
		c0.4-0.1,0.7-0.2,1-0.4s0.6-0.4,0.9-0.7c0.3-0.3,0.5-0.6,0.6-1l4.1,2.5c-0.3,0.7-0.7,1.3-1.3,1.8c-0.6,0.5-1.2,1-1.9,1.3
		c-0.7,0.4-1.5,0.6-2.3,0.8c-0.8,0.2-1.6,0.3-2.4,0.3c-1.4,0-2.6-0.3-3.7-0.8c-1.1-0.5-2.1-1.3-2.9-2.2c-0.8-0.9-1.5-1.9-1.9-3.1
		C219.2,30.5,219,29.4,219,28.2z"/>
	<path class="st1" d="M245.9,37.7c-1.4,0-2.7-0.3-3.8-0.8c-1.1-0.5-2.1-1.2-2.9-2.1s-1.4-1.9-1.9-3c-0.5-1.1-0.7-2.3-0.7-3.5
		c0-1.2,0.2-2.4,0.7-3.5c0.5-1.1,1.1-2.1,2-3s1.8-1.5,3-2c1.1-0.5,2.4-0.8,3.8-0.8c1.4,0,2.7,0.3,3.8,0.8c1.1,0.5,2.1,1.2,2.9,2.1
		s1.4,1.9,1.9,3c0.4,1.1,0.7,2.3,0.7,3.4c0,1.2-0.2,2.4-0.7,3.5s-1.1,2.1-1.9,3c-0.8,0.9-1.8,1.5-3,2.1
		C248.5,37.5,247.3,37.7,245.9,37.7z M241.7,28.4c0,0.6,0.1,1.2,0.3,1.8s0.4,1.1,0.8,1.5c0.3,0.5,0.8,0.8,1.3,1.1
		c0.5,0.3,1.2,0.4,1.9,0.4c0.7,0,1.4-0.1,1.9-0.4s1-0.7,1.3-1.1c0.3-0.5,0.6-1,0.8-1.6c0.2-0.6,0.2-1.2,0.2-1.8
		c0-0.6-0.1-1.2-0.3-1.8c-0.2-0.6-0.4-1.1-0.8-1.5c-0.4-0.4-0.8-0.8-1.3-1.1s-1.1-0.4-1.9-0.4c-0.7,0-1.4,0.1-1.9,0.4
		c-0.5,0.3-1,0.6-1.3,1.1s-0.6,1-0.8,1.6C241.8,27.2,241.7,27.8,241.7,28.4z"/>
	<path class="st1" d="M271.4,37.6v-9.7l-3.1,6.8h-2.7l-3.1-6.8v9.7h-5.1V19.1h5.5l4,8.7l4-8.7h5.5v18.4H271.4z"/>
	<path class="st1" d="M279.6,37.6V19.1h7.9c0.9,0,1.7,0.2,2.5,0.6c0.8,0.4,1.4,0.9,2,1.5c0.5,0.6,1,1.3,1.3,2
		c0.3,0.8,0.5,1.5,0.5,2.3c0,0.8-0.1,1.6-0.4,2.4c-0.3,0.8-0.7,1.5-1.2,2s-1.2,1.1-1.9,1.4c-0.8,0.4-1.6,0.5-2.5,0.5h-3v5.7H279.6z
		 M284.7,27.5h2.7c0.3,0,0.6-0.1,0.9-0.4c0.3-0.3,0.4-0.8,0.4-1.5c0-0.8-0.2-1.3-0.5-1.6c-0.3-0.3-0.6-0.4-0.9-0.4h-2.5V27.5z"/>
	<path class="st1" d="M295.8,37.6V19.1h8.5c0.9,0,1.7,0.2,2.5,0.6c0.8,0.4,1.4,0.9,2,1.5c0.5,0.6,1,1.3,1.3,2
		c0.3,0.8,0.5,1.5,0.5,2.3c0,1.1-0.2,2.1-0.7,3c-0.5,0.9-1.1,1.7-1.9,2.3l3.9,6.8H306l-3.2-5.7h-1.9v5.7H295.8z M300.8,27.5h3.2
		c0.3,0,0.6-0.2,0.9-0.5c0.3-0.3,0.4-0.8,0.4-1.5c0-0.6-0.2-1.1-0.5-1.5c-0.3-0.3-0.6-0.5-0.9-0.5h-3.1V27.5z"/>
	<path class="st1" d="M318,19.1h4.6l6.4,18.4h-5.1l-1.1-3.6h-4.9l-1.1,3.6h-5.2L318,19.1z M322,30.6l-1.6-5.7l-1.7,5.7H322z"/>
</g>
</svg>
