<?xml version="1.0" encoding="utf-8"?>
<!-- Generator: Adobe Illustrator 24.2.3, SVG Export Plug-In . SVG Version: 6.00 Build 0)  -->
<svg version="1.1" id="Layer_1" xmlns="http://www.w3.org/2000/svg" xmlns:xlink="http://www.w3.org/1999/xlink" x="0px" y="0px"
	 viewBox="0 0 85 85" style="enable-background:new 0 0 85 85;" xml:space="preserve">
<style type="text/css">
	.st0{fill:#FFFFFF;stroke:#3F539C;stroke-width:6;stroke-miterlimit:10;}
	.st1{fill:#FFFFFF;}
	.st2{fill-rule:evenodd;clip-rule:evenodd;fill:#FFFFFF;}
</style>
<g>
	<path class="st0" d="M22.7,43.1"/>
</g>
<g>
	<path class="st1" d="M19.6,45.7c-1.5,0-2.8-1.2-2.8-2.8c0-15.9,12.9-28.8,28.8-28.8c9.4,0,18.3,4.6,23.7,12.4
		c0.9,1.3,0.6,3-0.7,3.8c-1.3,0.9-3,0.6-3.8-0.7c-4.4-6.3-11.5-10-19.1-10c-12.8,0-23.3,10.4-23.3,23.3
		C22.3,44.5,21.1,45.7,19.6,45.7z"/>
</g>
<g>
	<path class="st1" d="M45.9,71.3c-10.1,0-19.3-5.2-24.6-13.8c-0.8-1.3-0.4-3,0.9-3.8c1.3-0.8,3-0.4,3.8,0.9
		c4.3,7,11.7,11.2,19.9,11.2c7.3,0,14-3.3,18.5-9.1c0.9-1.2,2.7-1.4,3.9-0.5c1.2,0.9,1.4,2.7,0.5,3.9C63.2,67.2,54.9,71.3,45.9,71.3
		z"/>
</g>
<g>
	<path class="st1" d="M45.7,81.1c-14.9,0-28.2-8.3-34.9-21.6c-0.7-1.4-0.1-3,1.2-3.7c1.4-0.7,3-0.1,3.7,1.2
		c5.7,11.4,17.2,18.6,29.9,18.6c10.6,0,20.7-5.1,26.9-13.6c0.9-1.2,2.6-1.5,3.9-0.6c1.2,0.9,1.5,2.6,0.6,3.9
		C69.8,75.1,58,81.1,45.7,81.1z"/>
</g>
<g>
	<path class="st1" d="M9.7,48.1c-1.4,0-2.6-1.1-2.7-2.5c-0.1-1.1-0.1-2.3-0.1-3.4c0-21.5,17.5-38.9,38.9-38.9
		c13.6,0,26,6.9,33.2,18.5l0.1,0.2c0.8,1.3,0.4,3-0.9,3.8c-1.3,0.8-3,0.4-3.8-0.9l-0.1-0.1C68,14.7,57.4,8.8,45.7,8.8
		c-18.4,0-33.4,15-33.4,33.4c0,1,0,2,0.1,3c0.1,1.5-1,2.9-2.5,3C9.8,48.1,9.8,48.1,9.7,48.1z"/>
</g>
<g>
	<circle class="st2" cx="45.7" cy="42.9" r="16.6"/>
</g>
</svg>
