<?xml version="1.0" encoding="utf-8"?>
<!-- Generator: Adobe Illustrator 22.0.1, SVG Export Plug-In . SVG Version: 6.00 Build 0)  -->
<svg version="1.1" id="Camada_1" xmlns="http://www.w3.org/2000/svg" xmlns:xlink="http://www.w3.org/1999/xlink" x="0px" y="0px"
	 viewBox="0 0 151.7 32.4" style="enable-background:new 0 0 151.7 32.4;" xml:space="preserve">
<style type="text/css">
	.st0{fill:#3C5099;}
	.st1{fill:#C23F44;}
	.st2{fill:none;stroke:#3C5099;stroke-width:6;stroke-miterlimit:10;}
	.st3{fill-rule:evenodd;clip-rule:evenodd;fill:#C23F44;}
</style>
<g>
	<g>
		<polygon class="st0" points="26.7,10.6 31.9,10.6 31.9,26.2 36.3,26.2 36.3,10.6 41.5,10.6 41.5,6.9 26.7,6.9 		"/>
		<path class="st0" d="M55,12.9h-4.2v7.9c0,0.3,0,0.7-0.1,0.9c-0.3,0.7-0.9,1.4-2.1,1.4c-1.4,0-2.1-1.2-2.1-3.1v-7.1h-4.2v7.8
			c0,4.1,2,5.8,4.7,5.8c2.4,0,3.6-1.4,4.2-2.2h0.1l0.2,1.9h3.6c-0.1-1.1-0.1-2.5-0.1-4.3V12.9z"/>
		<path class="st0" d="M78.4,12.6c-4.3,0-7.1,2.7-7.1,7c0,4.3,3,6.8,6.9,6.8c3.6,0,7-2.2,7-7.1C85.2,15.4,82.5,12.6,78.4,12.6z
			 M78.3,23.5c-1.8,0-2.7-1.7-2.7-4c0-2,0.7-4,2.7-4c1.9,0,2.6,2,2.6,4C81,21.9,79.9,23.5,78.3,23.5z"/>
		<path class="st0" d="M70.1,22.2V6.9H66v7.2H66c-0.6-0.9-1.9-1.5-3.5-1.5c-3.2,0-6,2.6-5.9,7.1c0,4.1,2.5,6.8,5.7,6.8
			c1.7,0,3.3-0.8,4.1-2.3h0.1l0.2,2h3.7C70.2,25.3,70.1,23.7,70.1,22.2z M65.8,20.3c0,0.4,0,0.7-0.1,0.9c-0.2,1.2-1.2,2-2.4,2
			c-1.7,0-2.8-1.4-2.8-3.7c0-2.1,1-3.8,2.8-3.8c1.3,0,2.2,0.9,2.4,2c0,0.2,0.1,0.5,0.1,0.7V20.3z"/>
	</g>
	<g>
		<polygon class="st1" points="86.7,26.2 91.1,26.2 91.1,18.4 98,18.4 98,14.9 91.1,14.9 91.1,10.5 98.5,10.5 98.5,6.9 86.7,6.9 		
			"/>
		<path class="st1" d="M106.2,12.6c-4.3,0-7.1,2.7-7.1,7c0,4.3,3,6.8,6.9,6.8c3.6,0,7-2.2,7-7.1C113,15.4,110.3,12.6,106.2,12.6z
			 M106.4,23.5c-1.8,0-2.7-1.7-2.7-4c0-2,0.7-4,2.7-4c1.9,0,2.6,2,2.6,4C109,21.9,108,23.5,106.4,23.5z"/>
		<path class="st1" d="M118.2,15.4h-0.1l-0.1-2.4h-3.6c0.1,1.1,0.1,2.4,0.1,4.4v8.9h4.1v-6.7c0-0.3,0-0.7,0.1-0.9
			c0.3-1.3,1.3-2.1,2.8-2.1c0.5,0,0.8,0.1,1.1,0.1v-3.9c-0.3-0.1-0.5-0.1-0.9-0.1C120.5,12.6,118.9,13.4,118.2,15.4z"/>
		<path class="st1" d="M146,19.3c0-3.3-1.6-6.6-5.9-6.6c-4.6,0-6.7,3.7-6.7,7.1c0,4.2,2.6,6.8,7.1,6.8c1.8,0,3.4-0.3,4.8-0.8
			l-0.5-2.8c-1.1,0.4-2.3,0.5-3.7,0.5c-1.9,0-3.6-0.8-3.7-2.5h8.5C145.9,20.6,146,20,146,19.3z M137.2,18.1c0.1-1.1,0.8-2.7,2.6-2.7
			c1.9,0,2.3,1.7,2.3,2.7H137.2z"/>
		<path class="st1" d="M129.5,9.1l-4,0.9v2.9h-1.8v3h1.8v5.4c0,1.9,0.4,3.1,1.1,3.9c0.7,0.7,1.8,1.1,3.1,1.1c1.2,0,2.1-0.1,2.7-0.4
			l0-3.1c-0.3,0.1-0.7,0.1-1.2,0.1c-1.3,0-1.6-0.7-1.6-2.3V16h3v-3h-3V9.1z"/>
	</g>
	<g>
		<path class="st0" d="M9.5,17.4c-0.4,0-0.7-0.3-0.7-0.7c0-3.9,3.2-7.1,7.1-7.1c2.3,0,4.5,1.1,5.9,3.1c0.2,0.3,0.1,0.7-0.2,0.9
			c-0.3,0.2-0.7,0.1-0.9-0.2c-1.1-1.6-2.8-2.5-4.7-2.5c-3.2,0-5.8,2.6-5.8,5.8C10.1,17.1,9.8,17.4,9.5,17.4z"/>
	</g>
	<g>
		<path class="st0" d="M16,23.8c-2.5,0-4.8-1.3-6.1-3.4c-0.2-0.3-0.1-0.7,0.2-0.9c0.3-0.2,0.7-0.1,0.9,0.2c1.1,1.7,2.9,2.8,4.9,2.8
			c1.8,0,3.5-0.8,4.6-2.3c0.2-0.3,0.7-0.4,1-0.1c0.3,0.2,0.4,0.7,0.1,1C20.3,22.7,18.2,23.8,16,23.8z"/>
	</g>
	<g>
		<path class="st0" d="M15.9,26.2c-3.7,0-7-2.1-8.6-5.4c-0.2-0.3,0-0.7,0.3-0.9c0.3-0.2,0.7,0,0.9,0.3c1.4,2.8,4.2,4.6,7.4,4.6
			c2.6,0,5.1-1.3,6.7-3.4c0.2-0.3,0.6-0.4,1-0.1c0.3,0.2,0.4,0.7,0.1,1C21.9,24.7,19,26.2,15.9,26.2z"/>
	</g>
	<g>
		<path class="st0" d="M7,18c-0.3,0-0.6-0.3-0.7-0.6c0-0.3,0-0.6,0-0.8c0-5.3,4.3-9.6,9.6-9.6c3.4,0,6.4,1.7,8.2,4.6l0,0
			c0.2,0.3,0.1,0.7-0.2,0.9c-0.3,0.2-0.7,0.1-0.9-0.2l0,0c-1.5-2.5-4.2-3.9-7-3.9c-4.6,0-8.3,3.7-8.3,8.3c0,0.2,0,0.5,0,0.7
			C7.7,17.6,7.4,18,7,18C7,18,7,18,7,18z"/>
	</g>
	<g>
		<circle class="st3" cx="15.9" cy="16.7" r="4.1"/>
	</g>
</g>
</svg>
