<?xml version="1.0" encoding="utf-8"?>
<!-- Generator: Adobe Illustrator 22.0.1, SVG Export Plug-In . SVG Version: 6.00 Build 0)  -->
<svg version="1.1" id="Camada_1" xmlns="http://www.w3.org/2000/svg" xmlns:xlink="http://www.w3.org/1999/xlink" x="0px" y="0px"
	 viewBox="0 0 40 40" style="enable-background:new 0 0 40 40;" xml:space="preserve">
<style type="text/css">
	.st0{fill-rule:evenodd;clip-rule:evenodd;fill:#419B59;}
</style>
<g id="WA_Logo">
	<g>
		<path class="st0" d="M33.4,6.4C29.8,2.8,25,0.8,19.9,0.8C9.3,0.8,0.7,9.4,0.7,20c0,3.4,0.9,6.7,2.6,9.6l-2.7,9.9l10.2-2.7
			c2.8,1.5,6,2.3,9.2,2.3h0c0,0,0,0,0,0c10.6,0,19.2-8.6,19.2-19.2C39.1,14.9,37.1,10,33.4,6.4z M19.9,35.9L19.9,35.9
			c-2.9,0-5.7-0.8-8.1-2.2l-0.6-0.3l-6,1.6l1.6-5.9l-0.4-0.6C4.8,25.9,3.9,23,3.9,20c0-8.8,7.2-15.9,16-15.9c4.3,0,8.3,1.7,11.3,4.7
			c3,3,4.7,7,4.7,11.3C35.8,28.8,28.7,35.9,19.9,35.9z M28.6,24c-0.5-0.2-2.8-1.4-3.3-1.6c-0.4-0.2-0.8-0.2-1.1,0.2
			c-0.3,0.5-1.2,1.6-1.5,1.9c-0.3,0.3-0.6,0.4-1,0.1c-0.5-0.2-2-0.7-3.9-2.4c-1.4-1.3-2.4-2.8-2.7-3.3c-0.3-0.5,0-0.7,0.2-1
			c0.2-0.2,0.5-0.6,0.7-0.8c0.2-0.3,0.3-0.5,0.5-0.8c0.2-0.3,0.1-0.6,0-0.8c-0.1-0.2-1.1-2.6-1.5-3.6c-0.4-0.9-0.8-0.8-1.1-0.8
			c-0.3,0-0.6,0-0.9,0c-0.3,0-0.8,0.1-1.3,0.6c-0.4,0.5-1.7,1.6-1.7,4c0,2.4,1.7,4.6,2,5c0.2,0.3,3.4,5.2,8.2,7.2
			c1.1,0.5,2,0.8,2.7,1c1.1,0.4,2.2,0.3,3,0.2c0.9-0.1,2.8-1.2,3.2-2.3c0.4-1.1,0.4-2.1,0.3-2.3C29.4,24.3,29.1,24.2,28.6,24z"/>
	</g>
</g>
</svg>
