<?xml version="1.0" encoding="utf-8"?>
<!-- Generator: Adobe Illustrator 22.0.1, SVG Export Plug-In . SVG Version: 6.00 Build 0)  -->
<svg version="1.1" id="Layer_1" xmlns="http://www.w3.org/2000/svg" xmlns:xlink="http://www.w3.org/1999/xlink" x="0px" y="0px"
	 viewBox="0 0 123.3 85" style="enable-background:new 0 0 123.3 85;" xml:space="preserve">
<style type="text/css">
	.st0{fill:#FF0000;}
	.st1{fill:#FFFFFF;}
</style>
<g>
	<path class="st0" d="M117,14.8c-1.3-4.9-5.2-8.8-10.2-10.2c-9-2.5-45.2-2.5-45.2-2.5s-36.1,0-45.2,2.4C11.7,5.9,7.7,9.9,6.3,14.8
		C4,23.9,4,42.6,4,42.6s0,18.8,2.4,27.8c1.3,4.9,5.2,8.8,10.2,10.2C25.6,83,61.7,83,61.7,83s36.1,0,45.2-2.4
		c4.9-1.3,8.8-5.2,10.2-10.2c2.4-9,2.4-27.8,2.4-27.8S119.5,23.9,117,14.8z"/>
	<polygon class="st1" points="50.2,59.9 80.2,42.6 50.2,25.3 	"/>
</g>
</svg>
